<svg xmlns="http://www.w3.org/2000/svg" height="100" width="100">
  <path
      d="M4.402 23.218c-2.629 4.553-2.854 10.098-3.031 15.3-.456 3.172-.108 6.566.145 9.789.425 5.404 2.4 10.57 4.424 15.552 2.914 5.51 6.685 10.517 11.084 14.934 5.15 5.578 11.881 9.519 19.192 11.51 4.71 1.936 9.765 2.617 14.832 2.457 5.985.118 11.78-1.826 17.404-3.647 7.022-2.691 12.982-7.434 18.134-12.825 5.578-5.545 8.168-13.278 10.792-20.515 2.372-7.52 2.051-15.582 1.156-23.31-.222-1.193-1.666-7.285-1.135-3.78.273-2.63-2.584-6.602-3.25-1.863-.824 1.922-2.492 7.54-.416 2.536.71-1.558 1.927-6.032.974-1.69-1.9 6.022-5.367 11.48-8.95 16.652-3.257 4.258-7.19 8.3-12.287 10.258 1.237-.942 6.451-3.7 4.961-3.625-8.607 6.07-19.154 10.06-29.816 9.108-7.052-.268-13.874-2.365-20.07-5.697-8.823-4.18-15.41-12-19.254-20.857-1.53-3.35-3.18-6.668-4.329-10.162zm.581 2.928c2.41 2.774 2.685 7.066 4.598 10.307 2.387 4.343 5.126 8.484 8.678 11.999-2.142-1.027-5.01-5.244-6.996-7.825-3.038-4.26-5.613-9.214-6.28-14.481zm-1.162 2.792c.658 2.775.624 6.256 1.038 9.31.198 2.547.513 4.88.766 7.332.712 6.54 3.078 12.687 6.032 18.432 1.475 3.06 3.14 6.06 5.606 8.48 2.302 2.01 4.556 4.37 7.317 5.908 2.337 1.988 5.368 3.582 7.744 5.012-5.25-1.861-9.726-5.252-13.91-8.585-2.195-2.262-4.613-4.734-6.435-7.484-2.599-3.481-4.806-7.29-6.46-11.391-3.151-6.4-3.244-13.817-2.84-20.8.24-2.075.411-4.258 1.142-6.214zm87.99 16.38c-2.019 8.732-5.784 17.36-12.205 23.744-3.92 3.61-8.782 5.964-13.85 7.467-2.071 1.032-5.726 1.264-1.746-.005 3.731-1.268 6.656-4.025 10.135-5.787 1.376-1.663 5.354-5.306 1.93-1.494 3.21-1.007 4.792-5.32 6.994-7.805 3.437-5.061 5.837-10.823 8.742-16.121zm-57.235 42.66c4.44 1.635 9.062 2.903 13.82 2.575 4.659.015 9.415.309 13.8-1.624 1.128-.6 5.493-1.22 1.986.073-4.516 1.903-9.372 2.974-14.282 2.578-5.294-.106-10.573-1.215-15.376-3.477z"
      fill="#f0da63" />
</svg>
