<svg version="1.1" xmlns="http://www.w3.org/2000/svg" width="933.333" height="933.333" viewBox="0 0 700 700">
  <path
      d="M26.3 171.7c-5.8 12.6-10 26.3-11.8 38.8-.4 2.2-.8 5.1-1 6.5-.3 1.4-.7 4.7-1 7.5-.3 2.7-.7 7-1 9.5-.3 2.5-.7 9.4-1 15.5-.3 6-.9 14.8-1.2 19.5-.4 4.7-.7 16.6-.7 26.5 0 16.1.3 22.2 2 42.5.7 8.6 1.8 16.2 3.4 24.5.6 2.7 1.2 6 1.5 7.2 1.4 7.7 11.6 41.3 14.4 47.8.5 1.1 2.4 5.8 4.1 10.5 6.4 16.9 8.7 21.7 17.8 37 13.4 22.3 24.2 37.5 42.6 59.5 12 14.4 43.3 46 53.1 53.6 29.3 22.9 58.1 38.5 91.5 49.4 6.3 2.1 15.6 5.3 20.5 7.1 5 1.8 13.4 4.4 18.8 5.9 9.7 2.6 11.5 3 17.2 4.1 1.7.2 4.1.7 5.5.9 1.4.3 3.5.7 4.7.9 1.2.3 5 .7 8.5 1.1 3.5.3 7.7.9 9.3 1.1 4.3.8 48.9.7 55.5-.1 3-.4 6.9-.8 8.5-1 22.8-2.4 82.4-18.9 103-28.5 15.9-7.4 33.4-16.5 34.5-18.1.3-.3 1.9-1.3 3.6-2.2 3-1.5 26.4-18.1 30.7-21.7 5.3-4.4 17.5-14.8 20.7-17.5 8.4-7.2 33.5-33.2 40.3-41.7 19.6-24.6 33.7-52.2 52.2-102.3 4.3-11.6 8.5-23.5 9.5-26.5 4.2-12.7 9.3-38.1 10.5-52 .2-2.5.7-7.9 1-12 .8-8.8.8-44.4.1-54.5-.3-3.9-.8-10.6-1.1-15-.3-4.4-.7-9.4-.9-11-.2-1.7-.7-6.4-1.1-10.5-1.1-11.7-10.9-49.3-14.1-54.4-3.2-5-7.1-7.7-10.1-7-2.2.6-6.3 7.1-6.3 10 0 1.1-1.6 6.4-3.5 11.9-4.3 12-7.6 23.7-7 24.3.7.7 6.2-11.9 11.1-25.3 2.4-6.6 4.3-11.3 4.3-10.4.2 4.9-6.6 25.1-14 41.4-1.2 2.7-2.3 5.2-2.4 5.5-.3 1.4-11 21.9-12.6 24.2-1.1 1.4-1.9 2.9-1.9 3.2 0 2.9-38.1 60.3-42.9 64.6-.4.3-2.1 2.3-4 4.5-14.2 16.9-35.7 35.6-51.4 44.9-8.9 5.3-18.6 10-19.3 9.4-.1-.2 6.7-4.6 15.2-9.8 14.9-9.1 21.3-14 18.4-14-.7 0-6.8 3.5-13.4 7.9-6.7 4.3-13.7 8.7-15.6 9.7-1.9 1-4.2 2.4-5 3.1-2.5 1.9-28.8 14.8-39 19.1-27.9 11.7-58 19.8-84 22.7-3.6.4-7.8.9-9.5 1.1-4 .5-39.1.5-43.5 0-1.9-.2-7.1-.7-11.5-1-18.2-1.5-35.2-4.4-52.8-9-44.6-11.6-97.2-37.8-127.6-63.3-12.6-10.5-34-32.3-38.9-39.4-.9-1.3-1.9-2.6-2.2-2.9-2.6-2.1-19.8-27.6-26.1-38.7-2.6-4.6-15.9-31-15.9-31.6 0-.3-2-4.7-4.4-9.8-12-25.8-17.7-39.1-22.7-52.6-2.8-7.7-3.8-9.3-5.5-9.3-1.7 0-2.9 1.8-6.1 8.7zM44 197.5c2.2 4.4 6.8 16.3 10.3 26.5 3.6 10.2 7.5 20.7 8.8 23.5 2.8 5.9 14.9 27.1 19 33.3 1.6 2.4 2.9 4.7 2.9 5.3 0 .5.5.9 1 .9.6 0 1 .4 1 1 0 2.5 22.6 32 33.4 43.5 3.1 3.2 5.6 6.1 5.6 6.2 0 2.1-13.7-10.7-21.7-20.2-13-15.5-32.6-42.8-41-57-6-10.2-13.5-25.6-17.7-36.4-3.7-9.2-8.9-28.6-10-36.6l-.6-4 2.6 3c1.4 1.6 4.3 6.6 6.4 11zM28.5 212c1.2 8.5 1.5 10.8 2 16.5.3 3.3.7 8.9 1 12.5.6 8.7 1.4 17.7 2 22 .6 4.2 1.3 10.9 2 20.5.3 3.8.7 8.1 1 9.5.2 1.4.7 5.2 1 8.5.7 7.7 1.3 12.8 2.1 19 .3 2.7.8 6.5 1 8.4.2 1.9.8 5.7 1.4 8.5 1.4 7.1 1.9 9.6 2.5 13.1 2.2 12.2 12.1 42 20.7 62.5 5.2 12.3 18.2 39.7 22 46.5.6 1.1 2.5 4.5 4.1 7.5 6.8 12.7 18.1 28.4 27 37.3 16.5 16.8 33.3 31.1 47.7 40.7 5.2 3.5 12.2 8.5 15.5 11.1 3.3 2.5 13.6 9.2 23 14.9 9.3 5.6 17.2 10.4 17.5 10.7 2.6 2.8-24.9-10.4-37-17.7-37.4-22.7-65.5-46.8-89.1-76.5-10.3-12.8-23.6-32.2-34.6-50-2.5-4.2-13.2-24.2-15.1-28.5-12.5-27.9-19.5-46.1-20.8-53.9-.3-1.4-.7-3.4-1-4.3-.3-.9-.7-2.7-.9-4-.3-1.3-.9-4.6-1.5-7.3-.5-2.8-1.2-7-1.5-9.5-.3-2.5-.8-6.1-1-8-2.2-18.1-2.4-58.7-.4-78.9 1.2-11.9 1.7-15.4 3.6-24.6 1.9-9.7 1.8-9.3 2.8-13l.8-3 .9 3c.4 1.6 1 4.6 1.3 6.5zM640 328.1c-16.7 66.1-49.8 126.2-88 159.7-18.2 16-46 31.8-73 41.5-6.9 2.5-13.9 4.9-15.5 5.3-1.7.4-3.4 1-4 1.4-1.6 1.2-14.1 4.9-18.4 5.4-5.8.7-5.9-.9-.4-3 18.8-6.8 28.5-11.9 49.7-25.8 7.8-5.1 17.4-11.2 21.4-13.5 4.7-2.7 10.2-7.3 16-13.3 4.8-4.9 10.1-10 11.7-11.1l3-2.2-3.5 4.4c-6.8 8.3-6.8 8.4-1 5.4 7.5-4 16.3-13.2 25.5-26.9 4.3-6.6 10.4-15.3 13.4-19.4 14.2-19.3 20-29.4 49.6-87.5 7.1-13.8 13.3-26 13.9-27.2 1.9-3.8 1.8-1.8-.4 6.8zM256.5 620.8c9.9 3.3 30 8.8 35.5 9.7 1.9.3 5.8 1 8.5 1.5 2.8.5 7.5 1.2 10.5 1.5 5.5.5 61.4.5 72.5 0 19.1-.8 37.2-4.7 52-11 5.8-2.5 14.3-4.4 19.5-4.4l4.5.1-6.5 3c-16.4 7.7-42.3 15.4-61 18.2-19 2.9-50.3 2.5-75-.9-2.5-.4-6.1-.9-8-1.1-5.6-.8-21.8-4.4-30.6-6.9-11.9-3.4-36.4-12.8-36.4-13.9 0-.5 2.1.1 14.5 4.2z" />
</svg>
