<svg viewBox="-76 1 511 512" xmlns="http://www.w3.org/2000/svg"><path d="M180.473 512l-10.836-11.64c-1.559-1.673-38.578-41.606-77.903-98.133C38.36 325.497 8.172 258.215 2.016 202.242.996 194.152.5 186.867.5 179.972.5 80.739 81.238 0 180.477 0c99.207 0 179.945 80.723 179.976 179.941 0 6.704-.484 13.895-1.484 21.98-6.02 55.993-36.168 123.34-89.614 200.173-39.375 56.597-76.484 96.594-78.043 98.27zm.004-482.383c-82.907 0-150.36 67.453-150.36 150.36 0 5.671.426 11.78 1.301 18.671l.027.25c11.239 102.73 114.89 229.715 149.035 269.086 34.192-39.398 138.075-166.586 149.051-269.34l.031-.25c.868-7.007 1.274-12.87 1.274-18.449-.027-82.886-67.48-150.328-150.36-150.328zm0 271.41c-66.747 0-121.051-54.304-121.051-121.05 0-66.747 54.304-121.051 121.05-121.051 66.731 0 121.02 54.304 121.02 121.05 0 66.747-54.289 121.051-121.02 121.051zm0-212.48c-50.415 0-91.43 41.015-91.43 91.43 0 50.414 41.016 91.43 91.43 91.43 50.398 0 91.402-41.016 91.402-91.43 0-50.415-41.004-91.43-91.402-91.43zm0 0"/></svg>