<svg version="1.0" xmlns="http://www.w3.org/2000/svg" width="470.667" height="321.333"
     viewBox="0 0 353 241">
  <path
      d="M157 31.2c10.5 5.5 23.7 13.7 31.2 19.5 6.7 5.1 23 20.4 22.5 21-1.2 1.1-6-2.3-12.8-9.1-12.5-12.2-29.7-22.2-43.3-25-11.6-2.4-38.8-5.4-43.4-4.9-5.7.7-6.4 2.3-1 2.4 2.4.1 5.4.4 6.8.8 2.2.6 1.8 1-3.7 2.8-5.1 1.8-6.9 1.9-10.5 1.1-6.8-1.6-25.3-.4-32.3 2.1-5.5 1.9-5.6 2-2 1.6 2.3-.2 8.1-.7 13-1.1 10.5-.8 10.6.4.5 3.6-14.2 4.5-30.5 11.8-21.5 9.5 4.6-1.2 40.1-1.7 43.7-.6 2.5.6-.1.9-10 1-21.1.1-31.1 1.8-46.5 7.8-4.8 1.9-9.1 3.2-9.6 2.9-1.2-.8-12.1 7.4-12.1 9 0 1 .9.8 3.2-.5 7.4-4.2 20.3-6.1 56.8-8.6 20.9-1.4 29.9-3.3 33-7 2.3-2.7 9.2-1.3 15.8 3.2 1.9 1.2 8.3 3.9 14.3 5.8 10.7 3.4 16.9 4.4 16.9 2.6 0-1-5.2-3.1-19-7.6-4.7-1.5-9.4-3.4-10.5-4.3-1.8-1.3-1.6-1.3 2.5-.7 2.5.4 6.1.9 8 1 1.9.1 7.3 2.1 12 4.3 9.6 4.8 24.4 9.2 30.7 9.2 2.3 0 5.9.8 7.9 1.7 2.8 1.4 3.8 1.5 4.1.6.3-.8 1.4-1.1 2.9-.7 1.4.4 2.4.2 2.4-.4 0-1.9 7.3-.1 12.5 3 2.8 1.7 6.8 3.2 9 3.5l4 .4-3-2.3c-1.6-1.3-6.3-5.5-10.5-9.3-4.1-3.9-10.4-9.7-14-12.9-6-5.4-6.2-5.7-2.3-3.5 7.1 4 21.2 14.3 36.4 26.5 7.9 6.4 16.5 12.7 19 14 6.5 3.3 16.9 5 21.5 3.6 3-.9 4.2-.7 8.7 1.4 5.8 2.7 8.8 3 12 1.2 1.2-.6 4-1 6.2-.9 4.5.2 9.9-1.4 9.1-2.8-.3-.4-2.3-1.1-4.4-1.4-8.1-1.4-16.6-10.7-24.9-27.7-5.2-10.7-10.3-19.5-10.3-17.7 0 .4 1.1 2.9 2.4 5.5 1.3 2.6 2.6 6.7 2.9 9.1.3 2.4 1.9 6.5 3.6 9.2 1.6 2.7 2.8 4.9 2.5 4.9-.3 0-5.5-3.9-11.6-8.8C262.6 58.7 257.1 55 254.7 55c-1 0-4.6-2-8-4.4-7.5-5.2-13.8-8.9-19.2-11.2-5.2-2.1-4.9-1.8 7.5 6.3 11.7 7.7 20 14.4 29 23.3 3.3 3.3 6.6 5.7 7.3 5.5.6-.2 3.9 2 7.1 5 3.3 3 5.5 5.5 4.9 5.5-1.8 0-11.6-7.4-27.5-20.9-8.7-7.2-15.8-12.8-15.8-12.3 0 1.6 8.3 12.3 14.1 18.2 3 3 9.3 9.1 14.2 13.4 4.8 4.4 8.5 8.1 8.3 8.3-.7.7-9-3.3-14.3-6.8-2.8-1.9-11.9-9.7-20.3-17.4-15.6-14.3-21.7-19.2-28.2-22.6-5.7-2.9-6.5-2.3-2.2 1.6l3.9 3.6-4.5-2.8c-2.5-1.5-5.2-3.2-6-3.8-2-1.5-15.7-7.5-17.2-7.5-.6 0 2.6 2.3 7.3 5 4.6 2.8 9.5 6 10.9 7.1 2.2 1.7 1.7 1.7-4.6-.6-3.9-1.4-8-2.5-9.1-2.5-1.1 0-6.5-2.6-11.9-5.7-12-6.9-21.5-11-27.5-11.9-4.2-.6-4.1-.5 4.1 3.8zm3.9 12.5c11 5.9 24 14.5 26.6 17.4 2.3 2.6 3.1 2.8-11.8-3.5-6-2.5-13.9-5.3-17.5-6.1-3.7-.8-9.2-2.6-12.3-4-6.4-2.8-17.2-5.8-19.6-5.3-1.6.3 16.7 7.1 24 8.9 5 1.2 35.2 15.7 34.4 16.5-1.2 1.2-11.5-2-23-7.2-6.5-3-12-5.4-12.3-5.4-.3 0-5.8-2-12.3-4.4-6.5-2.4-14-4.8-16.7-5.1-2.7-.4-5.8-1.2-6.8-1.7-1.9-1-1.9-1.1-.1-2.1 1.1-.6 7.1-1.1 13.4-1.1 10.7-.1 12.1.1 17.5 2.6 3.2 1.6 6.2 2.8 6.6 2.8 1.3 0 1.8-3.6.8-5.4-1.3-2.4-.3-2.1 9.1 3.1zM104.5 49c-1.6.4-7.7.8-13.5.8-7-.1-9.3-.3-7-.8 4.8-1 24.5-1 20.5 0zM300.3 49.5c1.3 2.7 3.7 8.6 5.3 13 1.5 4.4 3.3 8.3 4 8.8.7.4 2 2.8 2.8 5.5 1.7 5.1 5.4 11.7 6.2 11 .2-.3-.2-2.4-1.1-4.7-.8-2.3-2.1-7.6-3-11.9-.9-4.2-2.2-8.2-2.9-8.7-.7-.6-2.5-3.3-4-6.2-1.6-2.8-4.4-6.6-6.3-8.5l-3.5-3.3 2.5 5zM286.6 52.1c5.4 6 8.2 10.3 10.4 16.1 2.7 7.3 8.9 16.6 13 19.6 1.7 1.3 3.3 2.2 3.5 2 .2-.2-1.5-3.2-3.7-6.8-2.3-3.5-5.2-9.1-6.6-12.4-2.7-6.8-11.1-17-16.3-20l-3.4-1.9 3.1 3.4zM334.5 60.5c.3 1.1.9 4.8 1.2 8.3.5 4.8.9 6 1.6 4.7 1.1-2.1.1-9.2-1.9-12.5-1.1-1.7-1.3-1.9-.9-.5zM329.5 68.4c.3 1.4.7 3.7 1 5 .3 1.6 0 2.6-1.1 3-1.5.6-1.6 1.8-1 9.7.4 4.9 1.1 10 1.6 11.2.5 1.2 1.4 4.1 2 6.5.6 2.3 1.5 4 2 3.7 1.5-.9 1.2-16.8-.5-25.9-.8-4.5-1.6-9.6-1.7-11.5-.2-1.9-.9-3.6-1.6-3.9-.9-.3-1.1.4-.7 2.2zM319.6 69.8c-.8 2.4 1.8 12.2 5 18.3 1.4 2.8 2.7 4.9 2.8 4.7.6-.6-5.9-24.8-6.6-24.8-.4 0-.9.8-1.2 1.8zM119 101c-3.6.5-10.7 1.3-15.8 1.9-12.3 1.4-17.6 3-16.1 4.8 1.6 1.9 15.6 1.7 21.6-.3 5.6-1.9 21.8-1.5 36.3 1 4.7.8 12.8 1.9 18 2.5 13.4 1.6 24.1 3.8 34.5 7.3 5 1.7 12.2 3.4 16 3.8 3.9.4 7.8 1.1 8.8 1.5.9.4 1.7.3 1.7-.2 0-2.7-27.7-13.8-48.5-19.3-9.9-2.6-13-2.9-30.5-3.4-10.7-.2-22.4 0-26 .4z" />
  <path
      d="M37.4 106.4c-.8 2.2 3.2 10.6 7 14.6 1.8 1.9 3.7 4.3 4.2 5.2.5.9 5.5 6.3 11 12 12.7 13 20 17.1 27.2 15.2 4.6-1.3 1.8-8.2-5.7-13.9-2.8-2.2-4.9-4-4.7-4.2.1-.2 2.9.2 6.2.8 4.4.8 8 .8 14.1-.1 4.5-.6 8.7-.9 9.2-.5.6.3 1.1.1 1.1-.4 0-.6.5-1.1 1.1-1.1.8 0 .8.5-.1 1.5-1.9 2.2.4 9.1 4.9 15.1 6.5 8.7 16.4 13.9 25.4 13.2 6.5-.5 5.4-2.8-2.9-5.9-8.2-3-15.3-7.7-17.7-11.8-1.7-2.8-1.6-2.9.6-2.9 1.2 0 3.1-.3 4.2-.6 1.6-.6 3.6.7 8.9 5.3 6.9 6.1 11.2 8.1 17.4 8.1 6.8 0 10.6-2.9 18.7-14.7.5-.8 5.4 2.4 5.1 3.3-.3.7-1 3.9-1.6 7.2-1.2 5.7-1.4 6.1-6.1 8.6-2.6 1.5-8.1 3.5-12.1 4.5-8.7 2.3-7.2 3.7 3 2.8 7.4-.6 16.6-3.7 20.6-6.8 3.8-3 6.5-9 7.3-15.9.6-5.9.5-6.2-2.7-9.6l-3.4-3.4h3.5c4.1 0 17.3 2.5 21.2 3.9 1.6.6 3.8 1.1 5 1.1 3.9-.1-10.9-6.8-25.2-11.4-7.5-2.3-17.7-5.9-22.6-7.9-17.3-6.9-33.3-8.1-63.6-4.6-16.2 1.9-19.9 2-32.7 1-15.2-1.2-19-2.3-21.8-6.6-1.8-2.8-3.2-3.2-4-1.1zm121.7 29.1c2.4 1.3 2.8 1.9 1.9 3.4-2.3 4.3-12.7 5.4-18.7 1.9l-3.7-2.3 4.1-.7c2.3-.4 5.4-1.4 7-2.2 3.6-2 5.7-2 9.4-.1z" />
  <path
      d="M98.9 155.3c2.4 2.5 6.9 5.9 10 7.6 4.7 2.5 5.4 3.8 1.9 3.2-.5 0-.8.3-.8.8 0 .6-2.9 5.1-6.4 10.1-6 8.3-9.5 15.4-8.3 16.6.2.3 1.3-.8 2.3-2.5 2.4-3.7 13-14.8 15.4-16.1 1-.6 3.5-1 5.5-1h3.6l-2.2 3c-2.7 3.6-2.1 4.7 1.2 2.2 3.4-2.7 6.5-3.5 8.9-2.2 1.9 1 1.9 1.2.4 3.5-1.2 1.8-4.3 11.3-4.4 13.3 0 .2 2.7-2.1 6.1-5.1 6.4-5.8 11.3-8.7 14.8-8.7 1.4 0 1.9.5 1.4 1.6-.3.8.4 2.5 1.7 3.9 2 2.2 3.4 5.9 4.7 13 .5 2.6.7 2.8 1.4 1 .4-1.1.8-4.8.8-8.3.1-3.4.5-6.2 1.1-6.2.6 0 1.9-.9 2.9-1.9 3-3 5.4-2.9 9.6.7 4.2 3.4 6.1 3.6 5.8.6-.2-2.8 1.6-5.4 3.8-5.4 1.1 0 1.8.4 1.5.9-.8 1.2 2.1 4.8 3 3.8.5-.4.3-1.7-.4-2.7-1.6-2.5-1.5-3 .3-3 .8 0 1.5.4 1.5 1 0 .5.8 1 1.8 1 1.1 0 2.6.8 3.4 1.7 2.2 2.6 5.8 9.9 5.8 12 0 1.2.3 1.4 1.1.6.8-.8.9-3.1.2-8-.7-4.7-.7-7.3.1-8.5.5-.9.8-1.9.5-2.2-.3-.3-6.3-.1-13.5.4-16.7 1.2-27.8 1.2-32.3 0-2-.5-8.3-1.8-14.1-2.9-12.7-2.5-21.6-5.3-21.3-6.8.1-.6-3.9-3.8-9-7.1-13.5-8.7-15-9.3-9.8-3.9zM72 156.9c-4.9 1.9-12.5 6.4-13.4 8-.4.6 1.4.1 4-1 3.7-1.7 7-2.1 16.3-2.3 10.2-.1 11.6-.4 11.9-1.9.2-1-.2-2.4-.8-3.2-1.7-2.1-12.4-1.9-18 .4z" />
  <path
      d="M87.6 164.3c-2.5 2.4-4.6 5.1-4.6 6 0 1.4.9 1.1 4.7-1.3 3.5-2.3 5.9-3 9.5-3 4 0 4.8-.3 4.8-1.9 0-1.4-1.2-2.2-4.4-3-2.5-.6-4.7-1.1-4.9-1.1-.2 0-2.5 1.9-5.1 4.3zM251.8 165.5c-.9 2-.8 2.8.6 4.3 1.5 1.7 8.2 6.4 14.9 10.6 3 1.9 3.4 3.7 1.2 5.6-2.9 2.4.9 9 5.3 9 1.4 0 3.8-1.4 5.8-3.4 3.8-3.8 4.5-8.6 1.9-13.6-1.5-2.8-14.3-14.5-15.1-13.7-.3.2 0 1.7.6 3.2 1.6 4.2.6 4.1-4.1-.4-5.2-4.9-9.3-5.5-11.1-1.6zM185 172.9c-1.4.4-2 1-1.5 1.3 1 .6 5.5-.7 5.5-1.7 0-.6-.7-.5-4 .4zM211 173.1c-7.4 1.1-7.7 1.3-6 3.4.8 1 3 1.5 6.2 1.5 4.5 0 5-.2 4.5-2s0-2 5.5-2c5.2 0 6.3.3 7.9 2.4 1.1 1.4 3.9 3.6 6.4 5l4.5 2.5 3.3-3c3.1-2.9 3.1-3.1 1.2-4.5-1-.8-3.5-1.9-5.5-2.5-5.1-1.5-20.5-1.9-28-.8z" />
</svg>
