<svg xmlns="http://www.w3.org/2000/svg" height="100" width="100" version="1.1">
  <path
      id="background"
      d="M0 0v100h100V0H0zm48.229.018c.725-.024 1.45-.023 2.173.002 1.448.048 2.893.188 4.328.41 1.436.222 2.862.525 4.276.896 2.828.743 5.603 1.762 8.287 2.957 2.684 1.196 5.28 2.57 7.746 4.024a53.58 53.58 0 017.072 5.535 54.87 54.87 0 016.073 6.64 54.188 54.188 0 014.9 7.541 51.845 51.845 0 013.55 8.247 45.61 45.61 0 011.868 8.402c.357 2.851.449 5.737.275 8.605a46.03 46.03 0 01-1.318 8.508 44.133 44.133 0 01-2.914 8.111 55.382 55.382 0 01-3.994 7.56 53.372 53.372 0 01-5.133 6.849 49.607 49.607 0 01-6.182 5.894 45.46 45.46 0 01-7.14 4.692 42.568 42.568 0 01-6.471 2.619 50.937 50.937 0 01-6.797 1.619 62.37 62.37 0 01-6.96.762 76.572 76.572 0 01-6.973.054 37.714 37.714 0 01-7.25-1.015 40.719 40.719 0 01-6.897-2.334 44.204 44.204 0 01-6.41-3.487 47.017 47.017 0 01-5.787-4.478 52.446 52.446 0 01-3.77-3.711 53.25 53.25 0 01-6.351-8.473 52.568 52.568 0 01-2.512-4.668 51.254 51.254 0 01-2.022-4.896 49.395 49.395 0 01-1.492-5.074 47.396 47.396 0 01-.931-5.207 45.467 45.467 0 01-.332-5.293 50.118 50.118 0 013.066-17.84 48.431 48.431 0 013.908-8.192 45.756 45.756 0 015.416-7.298 24.155 24.155 0 012.34-2.752 36.211 36.211 0 012.662-2.438c1.852-1.546 3.828-2.961 5.735-4.394 2.795-1.487 5.57-3.07 8.437-4.422A44.597 44.597 0 0137.09 2.16c1.495-.519 3.028-.94 4.613-1.22a29.623 29.623 0 014.348-.776 31.074 31.074 0 012.178-.146zm.285.914l-.477.203c1.957.25 3.947.524 5.926.877 1.98.353 3.948.786 5.861 1.361 1.914.575 3.773 1.29 5.531 2.207a23.23 23.23 0 014.934 3.416 30.005 30.005 0 013.826 1.96 32.47 32.47 0 013.477 2.433c2.205 1.765 4.191 3.8 5.982 6.013 1.791 2.214 3.389 4.605 4.819 7.082 1.43 2.478 2.691 5.043 3.812 7.602.493 1.285.888 2.6 1.207 3.934.32 1.333.562 2.685.748 4.048.373 2.727.522 5.494.61 8.223-.195 3.004-.732 5.98-1.465 8.91-.733 2.931-1.664 5.818-2.643 8.645a37.544 37.544 0 01-2.55 5.21 47.193 47.193 0 01-3.237 4.792c-2.345 3.067-5.022 5.897-7.787 8.574-1.976 1.65-4.044 3.199-6.217 4.572-2.172 1.373-4.45 2.57-6.851 3.522a25.945 25.945 0 003.906-.78c1.267-.355 2.5-.8 3.695-1.328 2.391-1.055 4.634-2.431 6.719-4.04 2.084-1.61 4.01-3.453 5.762-5.438a51.048 51.048 0 004.724-6.297 61.025 61.025 0 003.772-6.758 51.326 51.326 0 002.804-7.217 42.629 42.629 0 001.569-7.545c.286-2.555.322-5.144.062-7.744a30.302 30.302 0 00-.787-5.717 41.334 41.334 0 00-1.723-5.515c-1.392-3.61-3.206-7.084-5.043-10.418a93.237 93.237 0 00-5.95-7.35 80.881 80.881 0 00-6.71-6.656 49.84 49.84 0 00-6.347-4.361 49.225 49.225 0 00-6.946-3.327 47.241 47.241 0 00-7.377-2.18 44.48 44.48 0 00-7.636-.913zm-5.43.937c-1.04-.036-2.166.086-3.207.3-1.04.215-1.998.523-2.705.858-.707.336-1.164.698-1.203 1.024 1.614-.36 3.228-.834 4.86-1.174 1.63-.34 3.277-.545 4.958-.36-.706-.417-1.662-.611-2.703-.648zm6.578 1.826a22.878 22.878 0 00-1.777.045c-1.183.075-2.36.23-3.537.418-2.354.377-4.7.89-7.055 1.172-1.49.256-2.935.657-4.328 1.182a26.804 26.804 0 00-4.026 1.92 31.285 31.285 0 00-3.693 2.525 36.44 36.44 0 00-3.336 3.002c-1.746 1.689-3.366 3.503-4.9 5.389-1.534 1.886-2.98 3.843-4.38 5.814a20.83 20.83 0 00-1.15 2.363c2.239-2.785 4.41-5.69 6.81-8.365 1.198-1.337 2.453-2.617 3.802-3.795a29.48 29.48 0 014.363-3.187c1.354-.88 2.86-1.418 4.363-1.963 1.504-.546 3.007-1.098 4.352-2.004a27.19 27.19 0 013.908-1.637 43.385 43.385 0 014.078-1.125c2.755-.631 5.559-1.076 8.291-1.646a18.944 18.944 0 00-1.785-.108zM9.76 72.143c-.08-.015-.028.192.244.75a29.768 29.768 0 001.787 3.816 31.184 31.184 0 002.27 3.498 33.341 33.341 0 002.697 3.17c.963 1 1.988 1.944 3.064 2.828a39.539 39.539 0 007.004 4.584 42.405 42.405 0 007.778 3.068c1.861.62 3.785.87 5.724.998 1.94.13 3.894.138 5.818.272-.407-.382-1.027-.667-1.771-.904s-1.611-.426-2.514-.614c-.902-.187-1.84-.375-2.722-.609-.884-.234-1.713-.513-2.399-.889a53.001 53.001 0 01-6.724-3.216A60.177 60.177 0 0123.75 84.8a67.572 67.572 0 01-5.752-4.807 73.875 73.875 0 01-5.187-5.361c.1.483.578 1.096 1.115 1.713.536.616 1.13 1.236 1.469 1.738a48.037 48.037 0 005.316 5.168 53.948 53.948 0 005.982 4.322 62.092 62.092 0 006.5 3.53 71.614 71.614 0 006.86 2.79 16.383 16.383 0 01-3.264-.38 26.246 26.246 0 01-3.176-.91c-2.09-.731-4.133-1.653-6.146-2.442a32.902 32.902 0 01-4.87-2.828 34.396 34.396 0 01-4.316-3.586 35.737 35.737 0 01-3.691-4.232 36.604 36.604 0 01-3.002-4.77c-.117-.352-.785-1.373-1.287-2.027-.251-.327-.462-.562-.541-.576zm21.875 22.673a35.166 35.166 0 006.494 2.332c2.228.568 4.507.937 6.809 1.141 2.301.205 4.623.244 6.935.154 2.312-.09 4.614-.31 6.873-.625 1.07-.154 3.127-.646 4.832-1.134 1.705-.488 3.056-.97 2.713-1.108a55.169 55.169 0 01-7.826 1.445 65.846 65.846 0 01-7.936.397 81.744 81.744 0 01-7.95-.469c-2.643-.28-5.272-.677-7.87-1.156-1.039-.284-1.998-.828-3.074-.977z"
  />
  <path
      id="frame"
      d="M1.14 51.308C1 39.174 5.33 26.982 13.533 17.978c2.839-3.928 6.921-6.716 10.735-9.583C29.86 5.42 35.363 2.06 41.703.94c11.561-2.973 23.468 1.55 33.335 7.366 10.019 6.56 17.839 16.588 21.597 27.963 3.549 10.94 2.86 23.207-2.09 33.628-4.525 10.441-12.332 19.65-22.449 24.993-8.343 4.225-17.97 5.39-27.201 5.056-9.841-.406-19.103-4.758-26.343-11.314C8.019 79.264 1.197 65.499 1.14 51.308zm11.671 23.325c.203.968 1.909 2.447 2.584 3.451 6.573 7.479 15.339 12.557 24.659 15.81-4.42-.043-8.56-2.155-12.587-3.732-6.834-3.216-12.366-8.748-15.879-15.416-.234-.704-2.671-4.083-1.583-1.853 4.063 10.587 13.919 17.925 24.598 20.965 3.724 1.239 7.696 1 11.544 1.268-1.629-1.527-6.664-1.514-9.407-3.015-9.251-3.634-17.412-10.031-23.929-17.478zm-1.715-36.71c-.065 2.3-1.334 4.471-.95 6.854-.735 9.819-.32 20.677 5.97 28.81 6.465 9.467 17.083 16.029 28.436 17.55 6.9-.005 14.149-.073 20.604-2.847 7.34-3.507 14.512-8.186 18.586-15.47 3.785-4.76 5.319-10.727 5.715-16.675.926-10.97-.81-22.738-7.677-31.663-6.435-8.651-16.91-13.705-27.39-15.316-6.673-.626-13.64-.68-19.902 2.116-6.547 2.536-12.729 6.32-17.674 11.308-5.003 5.333-8.63 11.98-10.38 19.08-1.581 5.835-1.574 12.09-.42 17.998.155.506.83 2.341.65.876-.043-6.958 1.05-13.984 3.367-20.537.311-.716.665-1.414 1.065-2.084zM48.034 1.135c7.83 1.005 16.194 2.343 22.254 7.86 10.69 4.533 17.433 14.855 21.916 25.09 1.973 5.141 2.389 10.748 2.565 16.207-.389 6.007-2.148 11.9-4.106 17.555-2.862 7.256-8.046 13.222-13.576 18.576-3.952 3.299-8.265 6.19-13.067 8.093 10.686-1.285 19.233-9.152 24.807-17.883 5.554-8.647 9.246-18.863 8.205-29.263-.293-7.757-3.878-14.983-7.552-21.651-3.708-5.078-7.938-9.854-12.66-14.007C68.832 5.26 58.796 1.258 48.513.932l-.476.203zm3.414 2.667c-4.773-.522-9.445.964-14.156 1.528-5.957 1.023-11.187 4.37-15.382 8.628-3.491 3.378-6.482 7.261-9.28 11.204a20.806 20.806 0 00-1.15 2.363c4.477-5.57 8.688-11.622 14.975-15.347 2.708-1.76 6.024-2.155 8.714-3.968 5.06-2.625 10.814-3.267 16.279-4.408zM31.634 94.816c8.363 3.996 18.076 4.265 27.112 3.003 2.138-.308 8.232-1.97 7.545-2.243-10.317 2.707-21.189 2.133-31.581.218-1.039-.284-2-.829-3.076-.978zM45.787 2.518c-2.825-1.67-9.661.229-9.818 1.534 3.23-.719 6.457-1.905 9.818-1.534z"
  />
</svg>
