<svg xmlns="http://www.w3.org/2000/svg" version="1.1" x="0" y="0" width="100" height="100">
  <path id="moon-half" d="M2.898 67.368c-1.003-3.013 1.45 3.812 2.323 5.101 17.933 23.767 34.861 31.775 60.413 25.455 6.468-1.922 7.335-2.082 1.317-1.324-3.427 1.292 6.855-2.584 10.29-3.856-1.618 1.323-6.169 3.858-1.895 2.015 4.913-2.983 9.89-7.16 13.012-12.111 3.62-4.263 6.595-9.013 8.406-14.322 5.464-14.675 3.956-31.911-4.779-45.034C85.65 13.076 75.38 4.797 63.431 2.448c-9.078 1.898-15.346 9.87-19.168 17.768-1.585 6.075-3.98 12.15-3.054 18.555.686 9.777 3.95 19.52 10.53 26.935 4.543 5.476 11.331 8.513 17.966 10.606 6.906 1.604 14.247.335 20.61-2.632-1.37 5.685-7.261 8.56-11.943 11.264-8.82 4.626-18.68 7.398-28.656 7.304-11.527-.48-22.259-6.483-30.03-14.783-6.427-5.69-8.312-14.405-10.153-22.402-2.134-21.22 5.587-39.751 23.402-48.971 1.568-1.454 8.286-3.648 7.142-4.056-5.974 2.07-12.275 6.044-12.313 4.716 3.705-4.153 9.614-4.72 14.777-5.489-3.054 1.77 4.503-.548 6.184-.396 3.08.026 3.053-.501-.205-.704-4.226.017 3.067.422-.521.264a36.195 36.195 0 00-5.777.149C15.269 2.26 6.872 31.436.692 56.344c-1.324-6.246-.422-12.847.83-19.115 1.575-5.985 3.27-12.17 7.51-16.884C17.735 9.369 30.37-.385 45.036.012c1.38.402-2.062.05-1.858.255C9.91 3.534 5.74 37.698.692 56.344c-.09 3.433 1.363 8.948 2.206 11.024zM67 8.158c11.08 2.198 19.629 11.353 24.256 21.266 5.94 12.325 4.418 27.672-2.825 39.121-.828 2.367-5.171 5.253-1.839 1.272 3.307-4.367 5.18-9.823 6.259-15.136-.202-2.578.695-8.224-.034-11.947C89.579 27.294 80.705 13.986 67 8.158zM39.414 31.326c-1.721 1.855.098 8.034.45 6.06-.353-2.002-.23-4.046-.45-6.06zm-.772 5.625c-1.701 6.838.394 13.975 3.389 20.296.098 1.796 3.38 8.163 4.185 5.67-4.56-6.464-5.823-14.434-6.77-22.099-.309-1.251-.27-2.736-.804-3.867zm8.034 26.88c-1.149 1.315 1.814.888 0 0zm37.765 8.842c.44 1.115-2.108.619 0 0z" />
</svg>
