<svg xmlns="http://www.w3.org/2000/svg" height="100" width="100" version="1.1">
  <path
      id="moon-full"
      d="M49.633.006c-10.649-.202-20.677 4.738-29.1 10.87C9.698 19.204 2.086 31.932 1.152 45.693c-1.34 12.657 2.58 25.605 10.53 35.525 9.21 12.156 24.426 20.374 39.915 18.521 10.619-.772 21.53-3.951 29.343-11.53 10.286-9.174 17.686-22.316 18.005-36.294.266-2.82.174-4.723-.097-6.19-.875-9.36-4.85-18.297-11.047-25.327-1.323-.954 2.22 1.94-.522-.855C78.962 9.85 67.335 2.826 54.783.358a32.805 32.805 0 00-5.15-.352zm1.419.716c10.126.531 19.76 5.363 27.305 11.955 7.497 6.97 12.876 16.014 16.703 25.428 3.795 12.284 1.997 26.384-5.784 36.785-4.154 6.893-10.285 12.612-17.292 16.52l1.527-2.138c4.695-2.583 8.32-7.448 11.766-11.682 5.866-7.36 8.148-16.72 9.546-25.833.519-4.87.4-8.359-1.389-14.403-2.198-7.003-6.212-13.419-10.874-19.053-6.89-7.776-16.158-13.569-26.182-16.28C55.717 1.66 46.16.712 51.052.721zm-7.53.786c2.706 1.232-7.668 1.956-7.891 2.062 2.544-.927 5.163-1.908 7.89-2.062zM38.24 9.62c3.828.36-3.966.241-5.05 1.343-4.584 1.394-10.396 5.583-12.653 7.466-5.359 5.976-9.36 15.501-9.965 17.581-2.662 9.327-1.834 8.52-1.29 17.404.574 9.377 5.308 17.905 10.612 25.422 2.615 3.913 6.301 6.76 10.478 8.841 1.959 1.52-4.448-1.904-5.775-2.892-5.895-4.03-11.227-9.29-13.896-16.011-2.139-3.945-.703-.685-.358 1.598-2.849-3.453-3.537-8.22-5.18-12.327-1.83-6.137-1.911-12.756.357-18.802 2.5-8.416 6.05-17.078 13.358-22.461 4.564-3.322 10.119-4.914 15.402-6.705 1.295-.308 2.627-.483 3.96-.457zm-12.465 4.846c.746-.286-.042.367 0 0zm47.436-.76c7.145 5.249 13.74 11.99 16.191 20.748 2.824 7.424 4.732 16.089 1.2 23.618.544-4.979 1.894-9.997.523-14.985-2.286-11.12-8.5-21.28-17.237-28.519l-.807-.694zm16.716 10.472c3.143 3.911 5.433 8.568 6.983 13.32.691 1.652 1.1 6.267.083 1.863-1.433-5.442-4.017-10.482-7.066-15.183zM11.09 70.5l.022.018zm.136.211c1.215 2.194.234 1.768 0 0zm17.261 22.772c8.7 3.53 17.382 3.729 25.97 3.539 2.475.17 10.768-1.727 3.887-.392-4.105.8 4.399.307 5.497-.95 1.963-.593 8.3-2.044 3.115.073-7.792 2.625-16.17 3.46-24.353 3.05-5.05-.561-9.999-2.304-14.26-5.053l.133-.247z"
  />
</svg>
