<svg xmlns="http://www.w3.org/2000/svg" version="1.1" viewBox="0 0 100 30" width="100" height="30">
  <path
      id="name"
      d="M12.858 19.574h.51c.775-.034 1.538-.092 2.313-.08.405 0 .822.127 1.227.184.15.024.312 0 .462.024.533.08 1.076.138 1.597.289.139.035.3.347.29.52-.012.15-.244.301-.394.417-.046.035-.162-.012-.243-.046-.185-.058-.37-.22-.532-.185-.532.115-1.076.23-1.562.462s-.486.475-.07.822c.706.601 1.447 1.168 2.164 1.77.405.335.821.706.671 1.319-.162.613-.694.752-1.215.844-1.747.29-3.505.417-5.275.313-.267-.012-.521-.14-.787-.208 0-.07 0-.128-.012-.197.232-.07.463-.162.694-.208 1.4-.267 2.8-.521 4.2-.799.15-.023.29-.092.428-.15.046-.058.081-.116.127-.174-.138-.07-.289-.127-.416-.22-.567-.462-1.145-.913-1.678-1.423-.867-.833-.844-1.62.012-2.464.058-.058.104-.127.208-.254-.173 0-.289-.012-.393 0-.729.08-1.458.173-2.187.231-.347.023-.52.174-.648.497a333.675 333.675 0 01-2.198 5.635 7.038 7.038 0 01-.52 1.018c-.105.162-.278.266-.429.405-.057-.023-.104-.046-.162-.07.047-.254.07-.509.15-.752.521-1.642 1.065-3.285 1.597-4.928.116-.347.22-.694.336-1.053.162-.544.139-.578-.405-.52-1.47.138-2.95.266-4.42.427-1.492.162-1.087-.138-1.585 1.296-.474 1.342-.925 2.708-1.48 4.015-.336.787-.822 1.516-1.296 2.233-.301.463-.66.578-.949.428-.3-.15-.324-.417-.139-1.018.613-2.06 1.227-4.119 1.828-6.178.116-.382.058-.452-.335-.405-.66.08-1.32.196-1.979.277-.115.012-.3-.034-.335-.104-.047-.104-.035-.312.034-.382.186-.162.405-.312.625-.37.579-.15 1.169-.312 1.77-.37.521-.046.73-.278.88-.752a85.18 85.18 0 013.737-9.672C8.23 7.484 9.63 5.089 11.47 2.984c.451-.521.972-.995 1.48-1.458.22-.197.498-.359.765-.463.694-.278 1.388-.058 1.689.625.231.52.416 1.134.405 1.689a57.225 57.225 0 01-.267 4.662 44.543 44.543 0 01-2.556 11.026c-.035.128-.058.278-.128.51zm1.238-16.752c-.22.208-.382.324-.486.474-.867 1.226-1.804 2.418-2.58 3.702-2.406 3.98-3.956 8.33-5.472 12.704-.116.347.023.405.336.381 1.712-.127 3.413-.254 5.125-.347.428-.023.613-.185.717-.59.949-3.39 1.747-6.826 2.117-10.331.185-1.77.232-3.552.336-5.322.011-.197-.046-.382-.093-.671zm47.354 14.16c-.243.082-.381.128-.52.186-2.152.868-3.703.312-4.778-1.747-.66-1.261-.903-2.615-.984-4.015-.116-2.024.058-4.026.474-6.016.093-.44.255-.88.44-1.296.139-.324.417-.509.798-.44.359.07.533.336.567.672.047.52.081 1.041.081 1.562 0 1.133-.023 2.279-.034 3.413 0 .277.034.555.057.833-.046.011-.092.034-.138.046-.07-.127-.185-.255-.197-.382a41.256 41.256 0 01-.231-1.666c-.024-.208-.047-.405-.15-.625-.024.093-.059.174-.07.266-.127 1.62-.162 3.24.127 4.86.162.914.428 1.781.983 2.545.602.821 1.18 1.018 2.152.74.95-.277 1.77-.786 2.5-1.434.173-.162.3-.394.416-.613 1.122-2.233 2.268-4.455 3.714-6.514.44-.636.937-1.226 1.446-1.805.197-.22.463-.405.729-.52.775-.36 1.539.15 1.434.983-.069.555-.289 1.122-.555 1.62-1.006 1.885-2.268 3.61-3.644 5.252-.336.405-.671.81-1.053 1.157-.648.602-1.076 1.33-1.435 2.129-1.284 2.915-2.603 5.808-3.876 8.723-.3.683-.497 1.4-.74 2.106-.046.15-.081.312-.162.44-.07.104-.185.185-.29.277-.069-.127-.196-.254-.184-.381a7.05 7.05 0 01.162-1.088 48.5 48.5 0 012.788-8.666c.023-.162.08-.324.173-.601zm30.174 7.521c.416-.393.914-.683 1.157-1.261.705-1.666 1.955-2.719 3.725-3.135.347-.081.706-.081.89.289.186.37 0 .67-.265.902-.914.787-1.84 1.55-2.754 2.337-.509.44-.509.556.023.984.775.613 1.69.89 2.65.995.775.08 1.562.115 2.348.173.197.012.394.081.59.116 0 .035.012.08.012.116-.093.069-.185.162-.29.208-1.793.902-5.252.497-6.548-1.007-.173-.196-.3-.185-.486-.011-.312.3-.624.601-.96.867-.3.243-.648.36-1.018.162-.382-.196-.44-.555-.428-.937v-.682c-.174.115-.3.185-.428.277-1.11.787-2.337 1.296-3.702 1.389-1.157.07-1.898-.405-2.152-1.354-.047-.185-.081-.37-.14-.636-.161.139-.265.243-.392.324-.544.381-1.065.81-1.632 1.133-.52.301-1.122.348-1.712.186-.764-.209-1.169-.81-1.342-1.574-.231-.995.208-1.724.729-2.453.231-.335.509-.624.775-.937.254-.3.555-.509.983-.497a.984.984 0 00.266-.047c1.262-.323 2.442-.323 3.39.845.128-.139.209-.312.347-.382.174-.092.394-.092.59-.139.035.197.162.428.105.59-.22.671-.544 1.308-.73 1.99-.404 1.435.116 2.037 1.609 1.933 1.33-.093 2.464-.672 3.529-1.412.138-.093.208-.324.277-.497.29-.88.567-1.77.856-2.65.023-.07.058-.15.093-.22.127-.254.266-.532.613-.405.336.128.232.417.162.671-.266 1.111-.532 2.21-.787 3.32-.023.117-.023.255-.034.371.011.023.046.046.08.058zm-10.91.231c.023 0 .092 0 .162-.023 1.365-.428 2.256-1.377 2.88-2.603.058-.116-.011-.37-.104-.486-.497-.567-2.001-.555-2.533-.011-.648.647-.938 1.469-1.134 2.337-.116.486.173.786.729.786zm-40.228-2.059c-.173.208-.3.312-.381.451-.417.74-.822 1.493-1.238 2.233-.15.278-.301.555-.498.798-.185.243-.451.37-.763.243a.608.608 0 01-.394-.694c.116-.844.232-1.689.405-2.522.15-.729.382-1.446.567-2.163a.982.982 0 01.104-.255c.116-.22.232-.497.544-.393.335.104.208.405.162.636-.116.59-.231 1.169-.347 1.747.035.012.07.035.116.046.092-.115.173-.243.266-.358.254-.301.474-.637.763-.891.602-.532 1.354-.394 1.69.335.22.475.323 1.018.462 1.539.07.231.116.474.197.821.173-.208.277-.335.37-.45.683-.868 1.365-1.76 2.071-2.615.197-.243.463-.429.717-.602.775-.498 1.504-.174 1.666.729.023.15.047.312.047.463-.07 1.63-.29 3.24-.764 4.8-.07.244-.231.464-.37.684-.035.057-.162.115-.232.092-.057-.023-.127-.139-.127-.208-.011-.197 0-.393.012-.59.08-1.354.173-2.719.254-4.073.012-.162-.023-.324-.046-.59-.185.14-.324.209-.405.324-.555.718-1.1 1.435-1.631 2.152-.266.37-.498.764-.775 1.134-.255.336-.59.567-1.053.486-.463-.081-.683-.428-.787-.845-.15-.613-.278-1.226-.416-1.84-.035-.173-.105-.346-.186-.624zm-3.864 1.816c-.185.174-.335.394-.544.51-.497.289-1.006.566-1.538.786-1.435.59-2.939.96-4.466 1.18a3.75 3.75 0 01-1.018.012c-1.527-.22-2.441-1.759-1.782-3.147.995-2.083 3.24-4.13 6.329-3.54.196.034.381.08.566.15.752.29.95 1.018.44 1.655-.15.185-.324.347-.509.474-1.215.844-2.534 1.47-4.015 1.712-.381.07-.786.046-1.168-.011-.313-.047-.405.069-.44.335-.058.451.22.937.73 1.088.416.115.878.185 1.306.15a16.002 16.002 0 005.068-1.168c.3-.128.625-.232.937-.348a.637.637 0 00.104.162zm-3.274-2.973c-1.319-.544-3.702.544-4.153 1.886.752.22 3.679-1.1 4.153-1.886zm38.04 3.251c.498-.37 1.03-.671 1.273-1.215.683-1.515 1.955-2.348 3.425-2.938.254-.105.532-.105.706.15.196.266.104.544-.105.752-.312.312-.647.602-.983.902-.59.521-1.169 1.053-1.759 1.562-.312.266-.289.521-.069.81.486.637 1.157.891 1.92.88.533-.012 1.065-.128 1.597-.186.22-.023.451-.034.671-.046.023.046.035.081.058.127-.162.128-.324.278-.497.394-1.285.786-3.53.983-4.71-.579-.15-.196-.277-.139-.427 0-.278.243-.544.486-.845.706-.312.231-.66.347-1.03.162-.381-.197-.486-.555-.45-.937.08-.73.15-1.458.335-2.164.254-1.018.59-2.001.914-2.996.08-.243.231-.475.416-.648.116-.104.394-.162.52-.093.128.07.255.324.244.475-.035.277-.162.543-.29.798-.59 1.238-.775 2.58-.983 3.899.012.023.035.07.07.185zm-6.212-2.626c.185.104.312.173.44.254.682.394 1.388.74 2.036 1.18.393.267.74.625 1.03 1.007.381.509.485 1.11.15 1.7-.336.58-.903.718-1.527.649-1.18-.116-2.372-.232-3.552-.36-.405-.034-.81-.057-1.204-.126-.23-.035-.44-.162-.659-.243 0-.058.012-.116.012-.174.243-.058.474-.173.728-.185a434.82 434.82 0 013.888-.116c.277-.011.555-.011.821-.034.29-.035.37-.209.209-.44-.174-.243-.37-.497-.614-.648-.636-.405-1.319-.752-1.978-1.11-.278-.151-.579-.267-.833-.44-.555-.382-.683-1.018-.243-1.527.706-.81 1.62-1.273 2.696-1.377.462-.046.798.197.89.555.093.347-.08.74-.497.926-.254.115-.59.208-.856.139-.428-.105-.636.104-.937.37zM19.43 25.544c.821 0 1.654.035 2.476-.011a11.21 11.21 0 002.51-.405c-.173-.162-.254-.266-.347-.336-.798-.544-1.573-1.145-2.418-1.596-1.319-.706-1.099-1.701-.139-2.372.764-.532 1.62-.729 2.534-.683.22.012.463.116.648.243.266.185.278.544.07.798-.209.243-.429.348-.683.047-.047-.047-.15-.093-.208-.07-.498.174-1.019.324-1.481.567-.336.174-.035.313.127.428a498.38 498.38 0 013.077 2.164c.105.07.197.173.29.266.497.532.381 1.168-.278 1.47a1.818 1.818 0 01-.602.184c-1.446.186-2.892.267-4.338.035a3.971 3.971 0 01-.926-.312c-.139-.058-.22-.22-.335-.324-.012-.023 0-.058.023-.093z"
      stroke-width=".116" />
</svg>
