<svg viewBox="0 -100 512 512" xmlns="http://www.w3.org/2000/svg">
  <g id="instagram">
    <path d="M373.406 0H138.594C62.172 0 0 62.172 0 138.594V373.41C0 449.828 62.172 512 138.594 512H373.41C449.828 512 512 449.828 512 373.41V138.594C512 62.172 449.828 0 373.406 0zm108.578 373.41c0 59.867-48.707 108.574-108.578 108.574H138.594c-59.871 0-108.578-48.707-108.578-108.574V138.594c0-59.871 48.707-108.578 108.578-108.578H373.41c59.867 0 108.574 48.707 108.574 108.578zm0 0" />
    <path d="M256 116.004c-77.195 0-139.996 62.8-139.996 139.996S178.804 395.996 256 395.996 395.996 333.196 395.996 256 333.196 116.004 256 116.004zm0 249.976c-60.64 0-109.98-49.335-109.98-109.98 0-60.64 49.34-109.98 109.98-109.98 60.645 0 109.98 49.34 109.98 109.98 0 60.645-49.335 109.98-109.98 109.98zm0 0M399.344 66.285c-22.813 0-41.367 18.559-41.367 41.367 0 22.813 18.554 41.371 41.367 41.371s41.37-18.558 41.37-41.37-18.558-41.368-41.37-41.368zm0 52.719c-6.258 0-11.352-5.094-11.352-11.352 0-6.261 5.094-11.351 11.352-11.351 6.261 0 11.355 5.09 11.355 11.351 0 6.258-5.094 11.352-11.355 11.352zm0 0" />
  </g>

  <g id="email">
    <path d="M494.535 0H17.465C7.835 0 0 7.836 0 17.465v276.453c0 9.629 7.836 17.46 17.465 17.46h477.07c9.63 0 17.465-7.831 17.465-17.46V17.465C512 7.835 504.164 0 494.535 0zM30.031 43.027L173.54 138.41 30.031 263.332zM256 157.157L64.734 30.03h382.532zm-56.523-1.512l46.855 31.144a17.433 17.433 0 009.668 2.93c3.363 0 6.73-.98 9.668-2.93l46.855-31.144 144.403 125.703H55.074zm138.984-17.239l143.508-95.383v220.309zm0 0" />
  </g>

  <g id="telegram">
    <path d="M507.773 7.293c-5.015-6.11-13.332-8.375-20.726-5.656L17.39 171.359C8.008 174.77 1.42 183.04.199 192.941c-1.21 9.856 3.133 19.418 11.281 24.922l67.133 45.828a21.13 21.13 0 0021.832 1.243L246.07 188.14l-113.496 84.746c-5.328 3.98-8.512 10.328-8.512 16.976v78.5c0 8.098 4.442 15.516 11.59 19.367a22.028 22.028 0 0022.61-1.015l51.004-33.832 50.156 34.199c4.394 3.012 9.629 4.598 14.91 4.598 1.785 0 3.578-.184 5.344-.551 7.043-1.469 13.273-5.82 17.097-11.938L509.262 28.81a18.598 18.598 0 00-1.489-21.516zM273.211 360.156l-51.941-35.418a21.134 21.134 0 00-11.938-3.703c-4.07 0-8.144 1.184-11.71 3.55l-43.544 28.884v-59.176l200.41-149.645c8.95-6.683 11.203-18.847 5.239-28.293-5.97-9.445-17.918-12.636-27.797-7.425L91.148 235.902l-56.78-38.761L466.854 40.85zm0 0" />
  </g>

  <g id="wa">
    <path d="M439.277 72.723C392.38 25.824 330.04 0 263.711 0h-.023c-32.805.004-64.774 6.355-95.012 18.883-30.242 12.527-57.336 30.64-80.535 53.84-46.895 46.894-72.72 109.246-72.72 175.566 0 39.55 9.544 78.856 27.626 113.875L1.313 481.391c-2.942 8.41-.86 17.55 5.445 23.851C11.168 509.656 16.973 512 22.94 512c2.559 0 5.145-.43 7.668-1.313l119.227-41.73c35.02 18.082 74.324 27.625 113.875 27.625 66.32 0 128.668-25.828 175.566-72.723C486.172 376.965 512 314.613 512 248.293c0-66.324-25.824-128.676-72.723-175.57zm-21.234 329.902c-41.223 41.227-96.035 63.926-154.332 63.926-35.664 0-71.094-8.82-102.461-25.516-5.687-3.023-12.41-3.543-18.445-1.43l-108.32 37.91 37.913-108.32c2.114-6.043 1.59-12.765-1.433-18.449-16.692-31.36-25.516-66.789-25.516-102.457 0-58.297 22.703-113.11 63.926-154.332 41.219-41.219 96.023-63.922 154.316-63.93h.02c58.3 0 113.11 22.703 154.332 63.93 41.227 41.223 63.93 96.031 63.93 154.332 0 58.3-22.703 113.113-63.93 154.336zm0 0" />
    <path d="M355.984 270.469c-11.421-11.422-30.007-11.422-41.43 0l-12.491 12.492c-31.02-16.902-56.122-42.004-73.028-73.024l12.492-12.492c11.426-11.422 11.426-30.007 0-41.43l-33.664-33.663c-11.422-11.422-30.008-11.422-41.43 0l-26.93 26.93c-15.425 15.425-16.194 41.945-2.167 74.675 12.18 28.418 34.469 59.652 62.762 87.945 28.293 28.293 59.527 50.582 87.945 62.762 15.55 6.664 29.695 9.988 41.918 9.988 13.504 0 24.66-4.058 32.758-12.156l26.93-26.934v.004c5.535-5.535 8.581-12.89 8.581-20.714 0-7.829-3.046-15.184-8.582-20.715zm-14.5 80.793c-4.402 4.402-17.941 5.945-41.609-4.196-24.992-10.71-52.887-30.742-78.543-56.398s-45.684-53.547-56.394-78.54c-10.145-23.667-8.602-37.21-4.2-41.612l26.414-26.414 32.625 32.628-15.636 15.641c-7.07 7.07-8.778 17.793-4.243 26.684 20.559 40.312 52.735 72.488 93.047 93.047 8.895 4.535 19.618 2.832 26.688-4.243l15.637-15.636 32.628 32.629zm0 0" />
  </g>
</svg>
